<svg xmlns="http://www.w3.org/2000/svg" width="1760" height="820"
     viewBox="0 0 1760 820" font-family="Arial, sans-serif">
<defs>
  <marker id="ia" markerWidth="11" markerHeight="8" refX="10" refY="4" orient="auto">
    <polyline points="0,0 10,4 0,8" fill="none" stroke="#C62828" stroke-width="1.8"/>
  </marker>
  <!-- Drop shadow filter -->
  <filter id="sh" x="-5%" y="-5%" width="110%" height="110%">
    <feDropShadow dx="1" dy="1" stdDeviation="2" flood-color="#00000022"/>
  </filter>
</defs>
<rect width="1760" height="820" fill="#F8FAFD"/>
<rect x="118" y="28" width="1524" height="730" fill="white" stroke="#1E3A5F" stroke-width="2.5" rx="6" filter="url(#sh)"/>
<rect x="118" y="28" width="1524" height="30" fill="#1E3A5F" rx="6"/>
<rect x="118" y="48" width="1524" height="10" fill="#1E3A5F"/>
<text x="880" y="48" text-anchor="middle" font-size="14" font-weight="bold" fill="white">«système» Larablog</text>
<rect x="133" y="58" width="405" height="282" fill="#E8F2FB" stroke="#3A7FBD" stroke-width="1.5" rx="8"/>
<rect x="133" y="58" width="405" height="26" fill="#3A7FBD" rx="8" opacity="0.25"/>
<text x="335" y="76" text-anchor="middle" font-size="12.5" font-weight="bold" fill="#3A7FBD">Authentification</text>
<rect x="133" y="355" width="405" height="148" fill="#F3E5F5" stroke="#6A1B9A" stroke-width="1.5" rx="8"/>
<rect x="133" y="355" width="405" height="26" fill="#6A1B9A" rx="8" opacity="0.25"/>
<text x="335" y="373" text-anchor="middle" font-size="12.5" font-weight="bold" fill="#6A1B9A">Gestion du Profil</text>
<rect x="133" y="518" width="405" height="148" fill="#FCE4EC" stroke="#880E4F" stroke-width="1.5" rx="8"/>
<rect x="133" y="518" width="405" height="26" fill="#880E4F" rx="8" opacity="0.25"/>
<text x="335" y="536" text-anchor="middle" font-size="12.5" font-weight="bold" fill="#880E4F">Interactions sociales</text>
<rect x="572" y="58" width="385" height="240" fill="#E8F5E9" stroke="#2E7D32" stroke-width="1.5" rx="8"/>
<rect x="572" y="58" width="385" height="26" fill="#2E7D32" rx="8" opacity="0.25"/>
<text x="764" y="76" text-anchor="middle" font-size="12.5" font-weight="bold" fill="#2E7D32">Consultation publique</text>
<rect x="979" y="58" width="640" height="450" fill="#FFF3E0" stroke="#BF360C" stroke-width="1.5" rx="8"/>
<rect x="979" y="58" width="640" height="26" fill="#BF360C" rx="8" opacity="0.25"/>
<text x="1299" y="76" text-anchor="middle" font-size="12.5" font-weight="bold" fill="#BF360C">Gestion des Articles</text>
<line x1="1310" y1="80" x2="1310" y2="495" stroke="#BF360C" stroke-width="1" stroke-dasharray="4,4" opacity="0.5"/>
<text x="1465" y="95" text-anchor="middle" font-size="10" fill="#BF360C" font-style="italic">«inclus»</text>
<ellipse cx="337" cy="112" rx="111" ry="26" fill="white" stroke="#2E5FA3" stroke-width="1.5"/>
<text x="337" y="117" text-anchor="middle" font-size="12" fill="#111">S'inscrire</text>
<text x="337" y="151" text-anchor="middle" font-size="10" fill="#888">UC-01</text>
<ellipse cx="337" cy="170" rx="111" ry="26" fill="white" stroke="#2E5FA3" stroke-width="1.5"/>
<text x="337" y="175" text-anchor="middle" font-size="12" fill="#111">Se connecter</text>
<text x="337" y="209" text-anchor="middle" font-size="10" fill="#888">UC-02</text>
<ellipse cx="337" cy="228" rx="111" ry="26" fill="white" stroke="#2E5FA3" stroke-width="1.5"/>
<text x="337" y="233" text-anchor="middle" font-size="12" fill="#111">Se déconnecter</text>
<text x="337" y="267" text-anchor="middle" font-size="10" fill="#888">UC-03</text>
<ellipse cx="337" cy="300" rx="124" ry="26" fill="white" stroke="#2E5FA3" stroke-width="1.5"/>
<text x="337" y="305" text-anchor="middle" font-size="12" fill="#111">Réinit. mot de passe</text>
<text x="337" y="339" text-anchor="middle" font-size="10" fill="#888">UC-17</text>
<ellipse cx="337" cy="398" rx="114" ry="26" fill="white" stroke="#2E5FA3" stroke-width="1.5"/>
<text x="337" y="403" text-anchor="middle" font-size="12" fill="#111">Gérer son profil</text>
<text x="337" y="437" text-anchor="middle" font-size="10" fill="#888">UC-04</text>
<ellipse cx="337" cy="458" rx="118" ry="26" fill="white" stroke="#2E5FA3" stroke-width="1.5"/>
<text x="337" y="463" text-anchor="middle" font-size="12" fill="#111">Supprimer son compte</text>
<text x="337" y="497" text-anchor="middle" font-size="10" fill="#888">UC-05</text>
<ellipse cx="337" cy="562" rx="111" ry="26" fill="white" stroke="#2E5FA3" stroke-width="1.5"/>
<text x="337" y="567" text-anchor="middle" font-size="12" fill="#111">Liker un article</text>
<text x="337" y="601" text-anchor="middle" font-size="10" fill="#888">UC-15</text>
<ellipse cx="337" cy="622" rx="118" ry="26" fill="white" stroke="#2E5FA3" stroke-width="1.5"/>
<text x="337" y="627" text-anchor="middle" font-size="12" fill="#111">Commenter un article</text>
<text x="337" y="661" text-anchor="middle" font-size="10" fill="#888">UC-16</text>
<ellipse cx="764" cy="120" rx="125" ry="26" fill="white" stroke="#2E5FA3" stroke-width="1.5"/>
<text x="764" y="125" text-anchor="middle" font-size="12" fill="#111">Page d'accueil</text>
<text x="764" y="159" text-anchor="middle" font-size="10" fill="#888">UC-06</text>
<ellipse cx="764" cy="180" rx="125" ry="26" fill="white" stroke="#2E5FA3" stroke-width="1.5"/>
<text x="764" y="185" text-anchor="middle" font-size="12" fill="#111">Profil public auteur</text>
<text x="764" y="219" text-anchor="middle" font-size="10" fill="#888">UC-07</text>
<ellipse cx="764" cy="240" rx="111" ry="26" fill="white" stroke="#2E5FA3" stroke-width="1.5"/>
<text x="764" y="245" text-anchor="middle" font-size="12" fill="#111">Lire un article</text>
<text x="764" y="279" text-anchor="middle" font-size="10" fill="#888">UC-08</text>
<ellipse cx="1138" cy="122" rx="128" ry="26" fill="white" stroke="#2E5FA3" stroke-width="1.5"/>
<text x="1138" y="127" text-anchor="middle" font-size="12" fill="#111">Tableau de bord</text>
<text x="1138" y="161" text-anchor="middle" font-size="10" fill="#888">UC-09</text>
<ellipse cx="1138" cy="192" rx="111" ry="26" fill="white" stroke="#2E5FA3" stroke-width="1.5"/>
<text x="1138" y="197" text-anchor="middle" font-size="12" fill="#111">Créer un article</text>
<text x="1138" y="231" text-anchor="middle" font-size="10" fill="#888">UC-10</text>
<ellipse cx="1138" cy="262" rx="114" ry="26" fill="white" stroke="#2E5FA3" stroke-width="1.5"/>
<text x="1138" y="267" text-anchor="middle" font-size="12" fill="#111">Modifier un article</text>
<text x="1138" y="301" text-anchor="middle" font-size="10" fill="#888">UC-11</text>
<ellipse cx="1138" cy="332" rx="118" ry="26" fill="white" stroke="#2E5FA3" stroke-width="1.5"/>
<text x="1138" y="337" text-anchor="middle" font-size="12" fill="#111">Supprimer un article</text>
<text x="1138" y="371" text-anchor="middle" font-size="10" fill="#888">UC-12</text>
<ellipse cx="1465" cy="192" rx="108" ry="26" fill="#FFFDF0" stroke="#C62828" stroke-width="1.5"/>
<text x="1465" y="197" text-anchor="middle" font-size="12" fill="#111">Publier / Brouillon</text>
<text x="1465" y="231" text-anchor="middle" font-size="10" fill="#aaa">UC-13</text>
<ellipse cx="1465" cy="262" rx="113" ry="26" fill="#FFFDF0" stroke="#C62828" stroke-width="1.5"/>
<text x="1465" y="267" text-anchor="middle" font-size="12" fill="#111">Associer catégories</text>
<text x="1465" y="301" text-anchor="middle" font-size="10" fill="#aaa">UC-14</text>
<circle cx="52" cy="307" r="17" fill="white" stroke="#1E3A5F" stroke-width="2"/>
<line x1="52" y1="324" x2="52" y2="366" stroke="#1E3A5F" stroke-width="2"/>
<line x1="30" y1="342" x2="74" y2="342" stroke="#1E3A5F" stroke-width="2"/>
<line x1="52" y1="366" x2="32" y2="402" stroke="#1E3A5F" stroke-width="2"/>
<line x1="52" y1="366" x2="72" y2="402" stroke="#1E3A5F" stroke-width="2"/>
<text x="52" y="418" text-anchor="middle" font-size="13" font-weight="bold" fill="#1E3A5F">Visiteur</text>
<circle cx="1708" cy="302" r="17" fill="white" stroke="#1E3A5F" stroke-width="2"/>
<line x1="1708" y1="319" x2="1708" y2="361" stroke="#1E3A5F" stroke-width="2"/>
<line x1="1686" y1="337" x2="1730" y2="337" stroke="#1E3A5F" stroke-width="2"/>
<line x1="1708" y1="361" x2="1688" y2="397" stroke="#1E3A5F" stroke-width="2"/>
<line x1="1708" y1="361" x2="1728" y2="397" stroke="#1E3A5F" stroke-width="2"/>
<text x="1708" y="413" text-anchor="middle" font-size="13" font-weight="bold" fill="#1E3A5F">Utilisateur</text>
<text x="1708" y="428" text-anchor="middle" font-size="13" font-weight="bold" fill="#1E3A5F">authentifié</text>
<line x1="74" y1="368" x2="226" y2="112" stroke="#777" stroke-width="1.2"/>
<line x1="74" y1="368" x2="226" y2="170" stroke="#777" stroke-width="1.2"/>
<line x1="74" y1="368" x2="213" y2="300" stroke="#777" stroke-width="1.2"/>
<line x1="74" y1="368" x2="639" y2="120" stroke="#777" stroke-width="1.2"/>
<line x1="74" y1="368" x2="639" y2="180" stroke="#777" stroke-width="1.2"/>
<line x1="74" y1="368" x2="653" y2="240" stroke="#777" stroke-width="1.2"/>
<line x1="1686" y1="358" x2="448" y2="228" stroke="#777" stroke-width="1.2"/>
<line x1="1686" y1="358" x2="451" y2="398" stroke="#777" stroke-width="1.2"/>
<line x1="1686" y1="358" x2="455" y2="458" stroke="#777" stroke-width="1.2"/>
<line x1="1686" y1="358" x2="448" y2="562" stroke="#777" stroke-width="1.2"/>
<line x1="1686" y1="358" x2="455" y2="622" stroke="#777" stroke-width="1.2"/>
<line x1="1686" y1="358" x2="889" y2="120" stroke="#777" stroke-width="1.2"/>
<line x1="1686" y1="358" x2="889" y2="180" stroke="#777" stroke-width="1.2"/>
<line x1="1686" y1="358" x2="875" y2="240" stroke="#777" stroke-width="1.2"/>
<line x1="1686" y1="358" x2="1266" y2="122" stroke="#777" stroke-width="1.2"/>
<line x1="1686" y1="358" x2="1249" y2="192" stroke="#777" stroke-width="1.2"/>
<line x1="1686" y1="358" x2="1252" y2="262" stroke="#777" stroke-width="1.2"/>
<line x1="1686" y1="358" x2="1256" y2="332" stroke="#777" stroke-width="1.2"/>
<line x1="1249" y1="192" x2="1357" y2="192" stroke="#C62828" stroke-width="1.5" stroke-dasharray="6,3" marker-end="url(#ia)"/>
<text x="1303" y="182" text-anchor="middle" font-size="10" fill="#C62828" font-style="italic">«include»</text>
<line x1="1252" y1="262" x2="1352" y2="262" stroke="#C62828" stroke-width="1.5" stroke-dasharray="6,3" marker-end="url(#ia)"/>
<text x="1302" y="252" text-anchor="middle" font-size="10" fill="#C62828" font-style="italic">«include»</text>
<line x1="1249" y1="200" x2="1352" y2="255" stroke="#C62828" stroke-width="1.5" stroke-dasharray="6,3" marker-end="url(#ia)"/>
<text x="1318" y="230" text-anchor="middle" font-size="10" fill="#C62828" font-style="italic">«include»</text>
<line x1="1252" y1="252" x2="1357" y2="200" stroke="#C62828" stroke-width="1.5" stroke-dasharray="6,3" marker-end="url(#ia)"/>
<text x="1340" y="218" text-anchor="middle" font-size="10" fill="#C62828" font-style="italic">«include»</text>
<text x="880" y="812" text-anchor="middle" font-size="10" fill="#aaa">Diagramme de cas d'utilisation — Larablog</text>
</svg>